# xmcd CD database file
#
# Track frame offsets:
#	150
#	10945
#	25970
#	45137
#	64117
#	78842
#	110202
#	122167
#	136875
#	151420
#	169135
#	192525
#
# Disc length: 2768 seconds
#
# Revision: 0
# Processed by: cddbd v1.5PL3 Copyright (c) Steve Scherf et al.
# Submitted via: CDex 1.50Beta7
#
DISCID=9a0ace0c
DTITLE=GONTITI - Body of Gontiti
DYEAR=1989
DGENRE=Instrumental
TTITLE0=Yellow Tornado
TTITLE1=森をぬけて
TTITLE2=On the Bumpy Road
TTITLE3=Watchdog in the afternoon
TTITLE4=Strange Socks
TTITLE5=NDD - Night Dizzy Dance
TTITLE6=Strike Committee
TTITLE7=Foolish Parade
TTITLE8=モナパーク
TTITLE9=貧しい王家
TTITLE10=ナナキ
TTITLE11=原始の黄昏
EXTD=YEAR: 1989
EXTT0=
EXTT1=
EXTT2=
EXTT3=
EXTT4=
EXTT5=
EXTT6=
EXTT7=
EXTT8=
EXTT9=
EXTT10=
EXTT11=
PLAYORDER=
